<?xml version="1.0" standalone="no"?>
<!DOCTYPE svg PUBLIC "-//W3C//DTD SVG 20010904//EN"
 "http://www.w3.org/TR/2001/REC-SVG-20010904/DTD/svg10.dtd">
<svg version="1.0" xmlns="http://www.w3.org/2000/svg"
 width="1400.000000pt" height="1400.000000pt" viewBox="0 0 1400.000000 1400.000000"
 preserveAspectRatio="xMidYMid meet">
<metadata>
Created by potrace 1.14, written by Peter Selinger 2001-2017
</metadata>
<g transform="translate(0.000000,1400.000000) scale(0.100000,-0.100000)"
fill="#000000" stroke="none">
<path d="M1525 12980 c-2 -4 11 -31 29 -61 18 -30 104 -171 191 -314 87 -143
202 -332 255 -420 54 -88 200 -329 325 -535 126 -206 296 -487 380 -625 140
-230 377 -622 1153 -1900 441 -727 533 -878 550 -905 9 -14 22 -34 28 -45 19
-34 356 -589 364 -600 4 -5 17 -26 27 -45 19 -34 163 -270 496 -817 101 -167
165 -263 176 -263 83 -3 1023 -1 1025 1 2 2 89 146 193 319 236 392 1208 2002
1237 2050 11 19 26 43 31 52 16 29 554 918 632 1045 40 65 76 125 80 133 3 8
36 62 71 120 36 58 73 119 82 135 26 46 687 1141 731 1213 22 34 48 77 58 95
10 17 191 318 401 667 211 349 392 649 402 667 10 17 15 33 11 36 -4 2 -228 4
-496 3 -471 -1 -489 -2 -503 -20 -8 -11 -14 -25 -14 -32 0 -7 -4 -14 -8 -16
-10 -4 -192 -304 -192 -317 0 -5 -3 -11 -7 -13 -10 -4 -133 -206 -133 -217 0
-5 -3 -11 -8 -13 -4 -1 -43 -62 -87 -135 -44 -73 -94 -156 -112 -185 -18 -29
-41 -69 -53 -88 -11 -19 -25 -42 -30 -50 -17 -27 -142 -233 -160 -264 -10 -17
-68 -114 -130 -216 -132 -217 -137 -225 -171 -282 -14 -23 -102 -169 -196
-323 -93 -154 -176 -291 -184 -305 -8 -14 -17 -27 -20 -30 -3 -3 -8 -10 -10
-16 -2 -5 -51 -88 -109 -183 -58 -94 -113 -186 -123 -203 -22 -38 -203 -336
-375 -618 -69 -113 -130 -214 -136 -225 -6 -11 -51 -86 -101 -167 -69 -114
-92 -145 -101 -135 -6 6 -199 323 -429 702 -499 823 -441 728 -491 812 -22 37
-132 219 -244 403 -112 184 -252 416 -312 515 -60 99 -200 331 -312 515 -112
184 -301 497 -421 695 -119 198 -225 371 -235 385 l-18 25 -491 1 c-390 0
-491 -2 -491 -12 0 -7 27 -57 60 -111 33 -54 64 -105 69 -113 5 -8 119 -196
253 -418 133 -221 248 -410 253 -420 18 -31 261 -434 380 -632 65 -107 236
-391 380 -630 247 -410 889 -1474 924 -1532 9 -14 28 -46 42 -70 14 -23 150
-249 302 -501 152 -252 277 -462 277 -467 0 -5 -20 -41 -44 -82 -107 -181
-419 -694 -426 -701 -4 -5 -36 40 -72 100 -73 122 -518 855 -612 1008 -33 55
-65 107 -71 117 -20 33 -70 116 -193 318 -69 113 -132 216 -139 230 -8 14 -60
100 -116 192 -261 429 -463 761 -478 786 -9 15 -136 225 -284 467 -147 242
-275 454 -285 470 -28 48 -580 957 -601 990 -11 17 -153 251 -317 520 l-297
490 -513 1 c-282 0 -515 -3 -517 -6z"/>
<path d="M11442 12981 c-5 -3 -30 -42 -57 -86 -27 -44 -219 -361 -428 -705
-409 -672 -800 -1317 -1120 -1845 -110 -181 -215 -355 -234 -385 -19 -30 -135
-221 -258 -425 -123 -203 -233 -383 -243 -400 -11 -16 -109 -178 -219 -360
-286 -473 -808 -1332 -914 -1505 -5 -8 -39 -64 -75 -125 -73 -120 -255 -420
-354 -583 -34 -57 -60 -106 -57 -109 7 -6 1026 -8 1031 -2 2 2 146 240 321
529 174 289 328 541 340 560 12 19 121 197 240 395 120 198 287 473 370 610
488 804 1227 2022 1345 2215 75 124 291 479 480 790 189 311 377 621 419 690
42 68 81 133 86 142 36 64 331 546 342 559 7 8 13 22 13 30 0 13 -65 15 -510
15 -280 0 -513 -2 -518 -5z"/>
<path d="M4945 6177 c-7 -4 -126 -166 -264 -360 -137 -193 -373 -525 -524
-737 -197 -277 -272 -389 -266 -400 4 -8 18 -26 31 -40 24 -26 235 -275 373
-440 44 -52 82 -97 85 -100 3 -3 39 -45 80 -95 41 -49 80 -95 85 -101 11 -12
10 -11 270 -319 98 -115 197 -232 220 -260 68 -80 445 -525 588 -695 72 -85
133 -157 137 -160 3 -3 39 -45 80 -95 41 -49 115 -137 165 -196 49 -58 110
-129 135 -159 54 -64 274 -324 336 -396 24 -28 86 -101 136 -161 51 -61 149
-177 218 -258 69 -81 134 -159 146 -173 l21 -25 35 39 c20 21 48 55 64 74 16
19 33 40 39 46 5 6 29 33 51 60 23 27 122 144 219 259 97 116 189 224 204 240
14 17 49 57 76 90 28 33 62 73 77 90 14 16 55 64 90 106 86 103 330 391 343
405 5 6 28 33 50 59 22 27 107 128 189 224 205 243 233 275 301 356 33 38 108
126 165 195 58 69 115 136 126 150 23 26 284 334 364 430 25 29 59 69 76 89
17 20 98 115 179 211 81 96 166 198 189 225 213 250 276 326 276 337 -1 11
-947 1350 -1032 1460 l-25 33 -2047 0 c-1126 0 -2054 -3 -2061 -8z"/>
</g>
</svg>
