<?xml version="1.0" standalone="no"?>
<!DOCTYPE svg PUBLIC "-//W3C//DTD SVG 20010904//EN"
 "http://www.w3.org/TR/2001/REC-SVG-20010904/DTD/svg10.dtd">
<svg version="1.0" xmlns="http://www.w3.org/2000/svg"
 width="639.000000pt" height="639.000000pt" viewBox="0 0 639.000000 639.000000"
 preserveAspectRatio="xMidYMid meet">
<metadata>
Created by potrace 1.14, written by Peter Selinger 2001-2017
</metadata>
<g transform="translate(0.000000,639.000000) scale(0.100000,-0.100000)"
fill="#000000" stroke="none">
<path d="M4554 5485 l-421 -488 94 -234 93 -233 -97 -94 c-54 -51 -395 -375
-758 -719 -706 -671 -715 -680 -715 -773 0 -153 146 -224 298 -144 21 10 402
305 847 656 446 350 815 638 822 641 6 2 96 -47 200 -109 l188 -114 537 340
c295 188 537 346 537 351 0 6 -199 86 -441 179 -336 128 -445 166 -458 159 -9
-6 -193 -146 -409 -313 -534 -410 -540 -401 -54 79 l372 366 -100 450 c-54
248 -103 458 -107 469 -6 15 -83 -69 -428 -469z"/>
<path d="M2595 5579 c-500 -47 -1036 -270 -1441 -600 -97 -79 -306 -288 -380
-379 -403 -498 -613 -1085 -614 -1721 -1 -601 187 -1156 560 -1655 97 -129
378 -409 505 -503 380 -279 751 -439 1220 -522 116 -21 161 -24 420 -24 234 0
311 4 400 18 495 82 912 264 1300 566 88 69 342 322 421 421 332 414 535 916
585 1443 15 160 6 512 -16 657 -28 180 -124 534 -152 561 -4 4 -72 -35 -151
-87 l-142 -93 -105 64 -105 65 21 -53 c233 -576 236 -1135 12 -1707 -128 -324
-371 -658 -636 -871 -330 -266 -674 -421 -1088 -489 -189 -32 -488 -32 -674
-1 -818 136 -1469 663 -1755 1421 -254 672 -167 1421 236 2025 363 546 973
911 1628 974 436 43 864 -42 1265 -250 63 -32 116 -58 117 -56 1 1 -20 55 -47
121 -27 65 -49 121 -49 125 0 3 47 60 105 126 l104 120 -67 34 c-269 137 -626
238 -951 271 -119 12 -395 11 -526 -1z"/>
<path d="M5563 5228 c-172 -95 -313 -174 -313 -177 0 -3 15 -30 33 -59 l33
-53 288 231 c159 126 285 230 280 230 -5 -1 -150 -78 -321 -172z"/>
<path d="M2765 4493 c-246 -19 -413 -63 -610 -161 -131 -64 -199 -107 -300
-187 -284 -226 -476 -522 -565 -873 -131 -517 1 -1073 348 -1467 320 -362 746
-555 1227 -555 565 0 1067 279 1378 767 114 178 194 391 229 608 19 121 16
420 -5 530 -25 128 -62 253 -100 339 l-33 74 -196 -151 c-132 -102 -195 -157
-192 -166 83 -245 75 -558 -20 -800 -170 -430 -598 -721 -1062 -721 -507 0
-955 340 -1098 833 -151 520 107 1095 598 1332 173 83 312 115 505 115 165 0
266 -20 434 -87 l87 -35 146 138 c81 77 162 152 180 167 19 16 34 32 34 36 0
9 -93 68 -165 103 -240 120 -558 182 -820 161z"/>
<path d="M2751 3399 c-172 -33 -347 -194 -402 -368 -29 -91 -29 -241 0 -332
71 -223 288 -379 525 -379 141 0 265 51 372 152 94 90 149 195 169 326 l7 43
-137 -97 c-174 -122 -226 -146 -327 -152 -95 -6 -155 9 -227 56 -116 76 -169
200 -149 346 17 122 83 217 252 364 l60 52 -50 -1 c-27 -1 -69 -5 -93 -10z"/>
</g>
</svg>
