<?xml version="1.0" standalone="no"?>
<!DOCTYPE svg PUBLIC "-//W3C//DTD SVG 20010904//EN"
 "http://www.w3.org/TR/2001/REC-SVG-20010904/DTD/svg10.dtd">
<svg version="1.0" xmlns="http://www.w3.org/2000/svg"
 width="562.000000pt" height="562.000000pt" viewBox="0 0 562.000000 562.000000"
 preserveAspectRatio="xMidYMid meet">
<metadata>
Created by potrace 1.14, written by Peter Selinger 2001-2017
</metadata>
<g transform="translate(0.000000,562.000000) scale(0.100000,-0.100000)"
fill="#000000" stroke="none">
<path d="M2720 5193 c-58 -10 -140 -34 -183 -53 -26 -12 -49 -21 -52 -20 -3 0
-16 -10 -29 -21 -13 -12 -26 -20 -28 -19 -6 5 -178 -153 -178 -164 0 -3 -13
-24 -29 -48 -40 -59 -78 -158 -94 -243 -14 -72 -16 -217 -4 -270 7 -29 6 -31
-55 -58 -141 -61 -320 -183 -430 -292 -151 -150 -247 -301 -329 -517 l-14 -36
-65 28 c-51 21 -64 31 -62 46 9 53 4 175 -8 189 -11 14 -7 19 13 16 24 -4 66
31 72 61 4 18 13 36 19 40 8 6 8 8 -1 8 -7 0 -10 9 -7 23 3 12 7 32 9 45 2 13
9 29 15 37 10 12 10 18 0 30 -11 13 -10 14 5 9 12 -5 16 -4 11 4 -3 6 2 15 11
21 10 6 14 11 10 11 -4 0 -3 9 3 20 7 12 16 18 23 13 7 -4 5 2 -3 13 -8 10
-11 16 -6 12 5 -4 22 12 39 35 37 52 63 78 71 70 3 -4 6 -1 6 5 0 17 50 63 61
57 5 -4 9 1 9 10 0 9 5 13 10 10 6 -3 10 -1 10 4 0 6 7 11 15 11 8 0 15 4 15
9 0 5 10 12 23 16 12 4 24 8 27 10 3 1 13 5 22 9 10 5 16 12 13 16 -3 5 4 6
15 3 11 -3 20 -1 20 5 0 6 8 8 19 5 10 -2 25 3 35 12 12 12 16 13 16 3 0 -9 3
-9 8 -2 4 6 15 10 25 8 9 -1 17 2 17 7 0 6 4 8 9 4 5 -3 12 -1 16 5 4 6 11 8
16 5 11 -8 90 35 84 46 -3 4 2 10 11 13 8 3 13 10 10 15 -4 5 -1 11 5 13 16 5
18 116 2 130 -7 6 -13 16 -13 24 0 14 -54 56 -80 62 -33 8 -143 0 -150 -10 -4
-4 -22 -9 -42 -10 -20 -2 -34 -6 -32 -9 3 -6 -17 -12 -64 -20 -4 -1 -24 -10
-45 -20 -21 -11 -42 -17 -47 -14 -6 3 -10 1 -10 -4 0 -6 -7 -11 -15 -11 -8 0
-15 -3 -15 -8 0 -8 -61 -38 -72 -34 -5 1 -8 -2 -8 -8 0 -5 -12 -16 -27 -24
-16 -8 -40 -26 -55 -40 -15 -14 -32 -26 -37 -26 -5 0 -13 -9 -16 -20 -4 -11
-9 -19 -13 -17 -4 2 -24 -14 -44 -35 -21 -21 -35 -38 -32 -38 2 0 -5 -10 -17
-22 -11 -13 -35 -43 -52 -68 -17 -25 -35 -48 -40 -51 -5 -3 -8 -8 -6 -10 1 -2
-8 -23 -20 -46 -12 -24 -18 -43 -14 -43 5 0 3 -4 -2 -8 -12 -8 -45 -100 -48
-131 -1 -11 -4 -21 -8 -21 -3 0 -7 -17 -8 -37 -2 -21 -4 -51 -5 -68 -1 -16 -5
-36 -9 -42 -5 -8 -3 -13 3 -13 6 0 8 -5 4 -12 -10 -17 -11 -58 -2 -64 5 -3 6
-10 3 -15 -4 -5 -6 -49 -6 -99 0 -64 -3 -90 -12 -90 -117 -4 -304 -90 -414
-191 -24 -22 -40 -39 -37 -39 3 0 -2 -7 -10 -16 -37 -36 -124 -185 -131 -224
-1 -3 -7 -23 -13 -45 -61 -214 -2 -498 138 -659 120 -140 252 -213 436 -242
21 -3 40 -7 42 -9 2 -2 3 -24 2 -49 0 -25 0 -52 0 -58 1 -7 3 -53 4 -103 6
-143 9 -185 17 -185 3 0 5 -10 5 -22 -1 -13 0 -27 3 -33 3 -5 6 -12 7 -15 0
-3 4 -13 7 -22 4 -10 10 -26 14 -35 3 -10 7 -20 7 -23 1 -3 5 -11 9 -18 5 -6
5 -12 0 -12 -4 0 -3 -4 2 -8 6 -4 21 -29 35 -57 13 -27 27 -52 30 -55 19 -17
48 -69 42 -75 -4 -5 -1 -5 6 -1 9 5 15 1 19 -13 3 -11 9 -18 14 -15 5 3 9 0 9
-6 0 -14 81 -96 92 -93 4 2 8 -3 8 -10 0 -12 103 -87 120 -87 6 0 10 -4 10 -8
0 -5 16 -14 35 -22 19 -8 35 -18 35 -24 0 -5 3 -6 7 -3 3 4 20 -2 37 -12 17
-11 34 -20 39 -20 4 -1 8 -1 10 -2 1 0 10 -2 19 -4 9 -2 31 -10 48 -18 19 -10
28 -11 23 -4 -5 9 -3 9 8 0 8 -6 41 -16 74 -21 59 -10 74 -12 126 -14 30 -1
99 30 99 44 0 5 5 6 12 2 7 -5 9 -2 5 8 -3 9 -1 20 4 25 15 15 12 113 -4 129
-4 4 -7 14 -7 22 0 31 -66 71 -144 87 -16 3 -37 10 -46 15 -10 5 -20 7 -23 4
-8 -8 -127 39 -127 49 0 5 -4 6 -9 2 -5 -3 -15 0 -23 7 -7 7 -25 19 -40 27
-16 8 -28 18 -28 23 0 4 -5 8 -11 8 -7 0 -24 12 -40 28 -15 15 -35 33 -44 40
-8 7 -12 18 -9 24 4 7 2 8 -4 4 -6 -4 -16 4 -23 16 -7 13 -15 25 -18 28 -27
23 -91 156 -98 205 -2 11 -6 40 -9 64 -4 25 -15 54 -25 65 -11 11 -19 23 -19
28 0 4 -3 7 -7 7 -5 -1 -19 -1 -32 0 -19 1 -21 4 -12 15 8 9 11 45 10 98 l-2
83 34 10 c19 5 49 18 68 28 19 9 35 16 35 15 1 -2 7 -14 12 -28 77 -178 109
-235 193 -344 141 -184 299 -313 506 -411 33 -15 71 -31 85 -35 22 -6 25 -11
22 -46 -13 -186 5 -307 64 -423 123 -241 370 -393 640 -392 264 1 472 109 605
315 41 62 95 191 106 253 8 44 9 180 3 237 l-5 39 111 56 c192 97 315 192 456
351 74 83 157 219 204 335 18 44 37 80 41 80 4 -1 33 -9 65 -18 55 -17 87 -40
71 -50 -4 -3 -7 -31 -5 -64 4 -80 4 -83 14 -83 5 0 3 -6 -4 -14 -9 -10 -17
-11 -25 -4 -9 7 -13 7 -13 -2 0 -6 -9 -19 -20 -28 -11 -10 -21 -29 -22 -44 -1
-16 -5 -28 -8 -28 -3 0 -6 -17 -8 -37 -3 -56 -5 -63 -14 -63 -4 0 -7 -3 -7 -7
4 -23 -2 -43 -11 -38 -6 3 -7 -1 -4 -9 4 -10 1 -16 -7 -16 -7 0 -10 -3 -6 -6
8 -8 -52 -104 -66 -104 -5 0 -8 -3 -4 -6 3 -3 -7 -19 -21 -36 -51 -57 -72 -79
-72 -75 0 3 -14 -8 -31 -24 -17 -16 -37 -29 -45 -29 -7 0 -18 -8 -23 -17 -6
-10 -11 -14 -11 -9 0 5 -6 3 -13 -3 -34 -27 -224 -83 -231 -67 -3 7 -5 7 -5
-1 -1 -7 -8 -13 -16 -13 -27 0 -84 -35 -96 -60 -22 -45 -37 -90 -27 -84 7 4 7
0 0 -12 -14 -28 20 -99 58 -123 18 -10 27 -20 21 -22 -6 -2 24 -3 66 -3 43 1
89 6 103 12 14 5 31 7 38 5 6 -3 12 -1 12 4 0 6 16 9 34 8 19 -1 33 2 30 7 -3
4 0 8 5 8 6 0 13 0 16 0 19 0 137 51 146 63 3 4 16 9 27 10 12 1 22 5 22 9 0
4 16 15 35 24 19 9 35 21 35 27 0 6 3 7 7 4 3 -4 17 5 30 19 12 14 23 21 23
17 0 -4 5 0 11 10 6 9 14 15 20 12 5 -4 9 -2 9 3 0 13 93 107 103 104 5 -1 6
2 3 7 -4 5 0 16 8 24 8 8 12 17 9 21 -4 3 2 6 12 6 10 0 15 3 12 6 -4 4 2 19
13 34 11 16 20 33 20 39 0 6 5 11 11 11 5 0 7 5 4 10 -3 6 -2 10 3 10 9 0 54
102 59 134 2 11 7 24 11 30 5 6 7 21 6 33 0 13 3 23 8 23 5 0 6 4 3 10 -3 5
-1 19 6 31 8 16 8 20 -1 14 -9 -5 -9 -3 -2 11 5 11 10 50 11 89 1 38 4 71 6
74 2 2 0 12 -5 22 -6 10 -6 20 -2 23 5 3 8 35 7 71 -2 68 1 75 38 80 157 20
256 67 376 180 93 87 165 209 196 330 22 83 29 242 14 305 -6 25 -13 55 -15
68 -16 80 -88 215 -155 291 -53 59 -135 124 -203 161 -68 36 -188 77 -236 79
-12 1 -15 20 -16 104 -3 223 -7 297 -16 297 -7 0 -6 5 1 13 6 8 7 18 2 23 -8
9 -32 90 -32 109 0 6 -7 18 -16 27 -9 10 -13 25 -9 35 4 9 4 14 0 10 -10 -9
-44 64 -37 77 4 5 0 6 -7 1 -10 -6 -12 -4 -7 8 3 9 2 16 -4 14 -5 -1 -17 11
-27 27 -23 39 -48 71 -99 122 -22 23 -39 45 -35 48 3 3 0 6 -6 6 -6 0 -25 14
-42 30 -17 17 -34 30 -38 30 -4 0 -22 13 -39 29 -18 16 -34 27 -36 25 -2 -3
-10 2 -17 11 -7 8 -18 15 -25 15 -7 0 -18 7 -25 15 -7 9 -15 13 -17 11 -3 -3
-19 3 -36 13 -18 10 -50 23 -72 30 -22 7 -47 15 -55 18 -24 10 -44 14 -65 16
-11 1 -22 5 -25 8 -7 9 -76 20 -123 20 -35 0 -132 -39 -122 -49 2 -3 -1 -14
-7 -26 -7 -11 -11 -24 -10 -28 1 -5 -2 -8 -6 -8 -4 0 -8 -16 -8 -35 0 -19 4
-35 8 -35 4 0 7 -3 7 -7 -9 -57 72 -121 173 -138 31 -5 53 -12 103 -31 11 -4
22 -8 25 -9 55 -21 70 -29 70 -37 0 -5 5 -6 10 -3 6 3 17 0 25 -7 33 -30 45
-38 54 -38 6 0 16 -9 23 -20 7 -11 16 -20 19 -20 10 0 79 -70 79 -80 0 -5 4
-10 8 -12 12 -5 56 -70 58 -86 2 -8 9 -21 16 -30 8 -10 20 -35 27 -57 13 -43
14 -45 26 -120 8 -48 42 -95 70 -95 6 0 10 -46 11 -115 1 -90 -2 -115 -12
-115 -7 0 -38 -11 -69 -24 -30 -14 -55 -21 -55 -16 0 24 -67 178 -112 256
-121 212 -281 372 -505 508 -51 31 -117 67 -148 82 -49 22 -55 28 -49 47 17
50 10 213 -11 298 -21 82 -72 209 -84 209 -3 0 -12 12 -18 28 -12 26 -79 99
-141 154 -57 50 -208 123 -297 145 -28 6 -235 11 -265 6z m-490 -1082 c0 -18
146 -160 201 -194 121 -77 266 -121 394 -121 53 1 190 18 190 24 0 1 11 3 24
6 39 7 152 64 206 104 28 20 83 72 122 114 l73 77 55 -25 c59 -27 200 -116
249 -157 101 -85 231 -231 285 -320 70 -115 127 -267 130 -351 1 -19 54 -78
70 -78 20 0 19 -17 -3 -43 -13 -15 -27 -23 -31 -19 -5 4 -5 1 0 -7 4 -7 3 -16
-2 -20 -14 -8 -54 -98 -58 -130 -2 -14 -4 -26 -5 -26 -1 0 -4 -13 -6 -30 -3
-16 -11 -33 -17 -37 -9 -6 -9 -8 -1 -8 8 0 10 -15 8 -42 -3 -27 0 -45 8 -50
11 -6 11 -8 0 -8 -11 0 -10 -33 3 -80 2 -8 7 -31 10 -50 7 -42 35 -98 81 -162
l34 -48 -43 -43 c-31 -33 -48 -63 -65 -118 -71 -221 -222 -431 -418 -582 -74
-58 -201 -136 -266 -165 -3 -2 -25 22 -48 52 -165 224 -402 319 -702 282 -101
-12 -202 -51 -288 -110 -25 -17 -46 -29 -47 -28 -6 4 -120 -125 -138 -156 -25
-42 -38 -39 -165 35 -270 158 -473 397 -550 649 -34 109 -47 132 -90 159 l-40
25 36 57 c66 102 92 205 87 343 -2 73 -8 125 -13 125 -1 0 -3 11 -6 24 -6 34
-50 118 -83 160 -30 38 -29 46 16 70 44 23 64 60 80 145 6 31 54 148 86 206
51 94 118 181 207 270 127 127 188 174 323 244 89 47 107 53 107 37z"/>
<path d="M2192 3873 c-6 -3 -10 -9 -6 -14 3 -5 -1 -9 -9 -9 -8 0 -22 -9 -32
-20 -10 -11 -20 -18 -22 -16 -2 2 -17 -8 -32 -23 -16 -14 -48 -44 -72 -66 -24
-22 -43 -41 -42 -42 2 -1 -13 -18 -32 -36 -19 -19 -35 -39 -35 -44 0 -6 -7
-13 -15 -17 -8 -3 -15 -12 -15 -21 0 -8 -4 -15 -10 -15 -5 0 -10 -7 -10 -15 0
-8 -4 -15 -10 -15 -5 0 -10 -7 -10 -15 0 -8 -5 -15 -10 -15 -6 0 -10 -3 -9 -7
2 -16 -14 -53 -22 -53 -5 0 -9 -7 -9 -15 0 -8 -4 -23 -9 -33 -25 -48 -41 -93
-36 -102 3 -6 1 -10 -4 -10 -6 0 -11 -9 -11 -20 0 -21 22 -36 61 -43 14 -3 41
-12 62 -20 20 -9 37 -13 37 -10 0 3 6 0 13 -6 8 -6 17 -8 20 -4 4 3 7 1 7 -5
0 -7 7 -12 15 -12 9 0 27 -7 40 -16 13 -9 29 -13 35 -9 5 3 10 1 10 -4 0 -6 6
-11 14 -11 8 0 16 -7 20 -15 3 -8 12 -15 19 -15 8 0 25 -10 38 -22 26 -24 33
-28 50 -28 5 0 7 -4 4 -10 -3 -5 -3 -10 2 -10 4 0 25 -16 45 -35 33 -32 39
-34 62 -24 14 7 23 16 20 20 -3 5 0 9 6 9 12 0 136 123 165 164 11 16 28 36
37 44 9 9 15 19 12 24 -3 4 -2 8 3 8 4 0 14 14 21 30 8 18 18 27 25 23 7 -3 9
-3 5 2 -8 8 28 86 44 96 5 3 9 8 7 10 -5 9 13 49 22 49 6 0 8 4 5 9 -3 4 4 27
15 50 11 23 17 47 13 53 -4 7 -3 8 4 4 7 -4 12 -4 13 1 3 31 11 58 20 63 23
15 -2 35 -44 34 -23 0 -46 2 -52 5 -5 3 -17 6 -25 6 -8 0 -21 4 -27 8 -7 5
-13 6 -13 2 0 -3 -13 1 -29 9 -16 9 -31 13 -34 9 -4 -3 -18 2 -31 11 -16 10
-27 12 -31 6 -4 -6 -11 -8 -16 -5 -5 4 -12 -1 -15 -9 -3 -9 -11 -16 -18 -16
-6 0 -33 -20 -59 -45 -27 -25 -53 -45 -58 -45 -6 0 -8 -4 -4 -9 3 -5 -3 -16
-13 -23 -10 -7 -29 -27 -42 -45 -13 -18 -27 -30 -32 -27 -5 3 -7 2 -6 -3 3 -9
-66 -114 -94 -144 -10 -11 -15 -19 -10 -19 4 0 -2 -7 -12 -15 -30 -22 -115
-17 -100 6 3 5 -2 6 -10 3 -16 -6 -21 12 -16 65 3 38 51 107 65 93 4 -4 6 -2
4 3 -4 18 13 45 24 38 5 -3 7 -2 4 4 -3 5 5 22 18 37 13 15 38 45 56 67 17 21
35 36 40 33 5 -3 6 3 2 12 -4 11 -2 15 4 11 6 -4 14 0 17 9 3 9 11 12 18 8 7
-4 10 -4 6 1 -8 8 40 55 55 55 5 0 6 4 3 9 -3 5 4 11 15 14 13 4 18 10 13 18
-4 7 -3 10 4 5 6 -3 13 -2 17 4 8 14 -43 63 -57 54 -6 -4 -8 -3 -5 2 7 12 -24
32 -41 27z"/>
<path d="M3415 3853 c-16 -14 -41 -35 -55 -47 -55 -46 -166 -109 -180 -101 -4
3 -11 -2 -14 -11 -4 -9 -9 -14 -13 -11 -3 4 -15 1 -27 -5 -11 -6 -30 -12 -41
-14 -11 -1 -31 -4 -45 -7 -14 -3 -42 -8 -63 -12 -49 -9 -53 -18 -28 -61 12
-19 15 -32 9 -28 -7 4 -6 -1 3 -12 9 -10 15 -27 14 -37 -2 -9 1 -15 6 -11 8 4
14 -17 10 -38 0 -5 3 -8 7 -8 5 0 26 -36 46 -80 21 -44 42 -80 47 -80 5 0 9
-6 9 -13 0 -8 11 -27 24 -42 14 -16 23 -32 20 -37 -3 -4 -1 -8 4 -8 5 0 21
-18 36 -40 14 -22 50 -64 80 -94 30 -30 52 -58 48 -62 -4 -4 -2 -4 4 -1 6 3
21 -4 35 -17 28 -26 59 -39 59 -25 0 5 11 14 25 21 13 6 22 14 20 18 -5 9 46
46 58 42 4 -1 7 6 7 15 0 9 3 13 6 10 4 -4 19 2 34 13 16 11 33 20 39 20 6 0
11 4 11 8 0 10 40 32 88 47 12 4 22 12 22 17 0 5 4 7 9 4 5 -3 19 3 32 13 13
10 30 16 37 14 7 -3 19 0 27 7 8 6 19 9 25 5 5 -3 10 -2 10 4 0 6 6 8 14 5 8
-3 17 0 21 5 3 6 11 9 16 6 5 -4 9 -1 9 5 0 6 4 9 8 6 4 -2 8 4 8 15 0 10 -6
19 -13 19 -11 0 -18 27 -14 53 0 4 -4 7 -11 7 -6 0 -8 3 -5 6 3 4 1 16 -5 28
-7 11 -13 24 -14 29 -1 4 -3 10 -4 15 -1 4 -2 10 -1 15 0 4 -4 7 -10 7 -5 0
-8 4 -4 9 3 5 0 16 -7 23 -7 8 -19 24 -25 36 -7 12 -19 32 -25 44 -7 12 -25
36 -40 53 -16 16 -28 33 -28 38 0 4 -38 44 -85 90 -110 107 -132 127 -144 127
-5 0 -11 5 -13 12 -7 21 -43 17 -73 -9z"/>
<path d="M2810 3410 c0 -21 -110 -240 -120 -240 -6 0 -9 -3 -8 -7 3 -17 -15
-42 -26 -36 -6 3 -8 2 -3 -2 4 -5 0 -17 -10 -27 -9 -10 -13 -18 -10 -18 4 0
-3 -12 -16 -26 -77 -89 -155 -174 -161 -174 -2 0 -23 -17 -45 -38 l-40 -38 22
-26 c12 -14 30 -36 40 -47 9 -12 17 -26 17 -31 0 -6 4 -10 9 -10 5 0 14 -13
21 -30 7 -16 16 -30 21 -30 5 0 9 -4 9 -10 0 -5 13 -31 28 -57 16 -26 37 -70
47 -98 10 -27 23 -55 28 -62 5 -7 6 -16 3 -22 -3 -5 -2 -11 4 -13 5 -1 11 -12
13 -23 2 -11 7 -27 10 -35 10 -28 22 -78 31 -135 3 -16 10 -50 15 -74 5 -25 7
-51 4 -58 -5 -12 18 -19 42 -13 11 3 176 2 191 -1 18 -3 37 1 31 7 -3 4 -2 16
4 27 9 15 8 18 -2 12 -8 -6 -10 -4 -4 5 4 7 9 26 11 41 4 32 8 54 23 111 5 20
6 39 3 42 -3 4 -1 6 4 6 5 0 10 10 11 22 1 11 6 24 10 27 4 3 8 11 9 16 3 32
18 75 27 75 6 0 8 3 4 6 -7 7 89 196 105 205 5 3 9 10 9 15 -1 5 14 30 34 56
19 26 35 52 35 58 0 6 5 8 10 5 6 -3 10 1 10 9 0 9 5 16 11 16 6 0 8 7 5 16
-3 8 -2 12 4 9 6 -3 10 -1 10 4 0 6 -4 11 -9 11 -5 0 -34 22 -64 50 -30 27
-58 46 -62 42 -5 -4 -5 -2 -2 4 7 12 -28 46 -37 37 -3 -4 -6 0 -6 8 0 8 -9 21
-20 29 -11 8 -20 18 -20 22 0 7 -5 15 -57 76 -13 15 -23 31 -23 35 0 5 -5 5
-12 1 -6 -4 -8 -3 -4 4 3 6 1 17 -6 24 -12 13 -32 48 -62 108 -7 14 -21 40
-30 58 -9 17 -14 38 -10 45 4 6 4 9 -1 5 -5 -5 -13 2 -19 14 -12 24 -36 36
-36 18z"/>
<path d="M3878 3036 c-38 -12 -68 -20 -68 -17 0 3 -4 2 -8 -4 -4 -5 -29 -21
-57 -33 -58 -27 -147 -82 -157 -97 -4 -5 -8 -6 -8 -2 0 4 -11 -5 -24 -20 -30
-34 -26 -40 62 -90 141 -79 291 -143 338 -143 9 0 11 45 9 188 -2 103 -4 187
-5 187 -1 0 -4 11 -6 24 -2 14 -5 26 -7 27 -1 1 -32 -8 -69 -20z"/>
<path d="M1699 3033 c0 -10 -3 -29 -5 -43 -8 -42 -10 -330 -2 -330 4 0 5 -7 2
-15 -12 -32 8 -33 74 -4 37 16 79 36 93 44 14 8 29 12 33 8 3 -3 6 -2 6 3 0 6
19 19 43 29 42 19 122 65 166 97 21 15 22 18 8 32 -9 9 -18 16 -22 16 -3 0
-15 8 -26 18 -10 11 -32 25 -47 33 -15 8 -29 17 -32 21 -15 20 -241 108 -277
108 -7 0 -13 -8 -14 -17z"/>
<path d="M2168 2661 c-67 -47 -281 -162 -328 -176 -86 -26 -130 -47 -130 -65
0 -10 4 -21 9 -24 4 -3 11 -19 15 -36 7 -37 73 -171 121 -245 52 -81 192 -231
285 -304 l51 -41 41 41 c63 62 137 107 275 165 27 11 40 22 38 33 -28 136 -46
214 -60 251 -9 25 -17 50 -19 55 -9 33 -79 179 -89 186 -5 3 -9 10 -9 15 -1
17 -21 54 -30 54 -4 0 -8 7 -8 15 0 8 -4 15 -8 15 -4 0 -16 15 -27 33 -10 17
-28 42 -39 53 l-21 22 -67 -47z"/>
<path d="M3408 2695 c-7 -9 -20 -25 -29 -35 -59 -65 -155 -241 -197 -362 -28
-77 -37 -115 -57 -237 -3 -19 -8 -37 -10 -40 -9 -15 26 -41 90 -66 39 -15 77
-34 86 -41 8 -8 19 -14 22 -14 9 0 48 -33 106 -87 40 -38 46 -41 61 -28 9 8
19 15 23 15 3 0 41 33 83 73 64 60 101 102 172 192 30 38 75 111 101 162 32
62 81 189 81 209 0 5 -30 21 -67 34 -128 44 -270 116 -395 202 -51 34 -58 37
-70 23z"/>
</g>
</svg>
